<svg width="100" height="60" viewBox="0 0 100 60" xmlns="http://www.w3.org/2000/svg">
  <!-- Outer Skin -->
  <ellipse cx="50" cy="30" rx="48" ry="28" fill="#D32F2F" stroke="#B71C1C" stroke-width="2"/>
  <!-- Inner Flesh -->
  <ellipse cx="50" cy="30" rx="42" ry="23" fill="#EF5350"/>
  
  <!-- Seed Cavities -->
  <path d="M50 30 L50 10 A30 18 0 0 1 76 22 Z" fill="#FFCDD2" opacity="0.8"/>
  <path d="M50 30 L76 38 A30 18 0 0 1 50 48 Z" fill="#FFCDD2" opacity="0.8"/>
  <path d="M50 30 L24 38 A30 18 0 0 1 24 22 Z" fill="#FFCDD2" opacity="0.8"/>

  <!-- Seeds -->
  <ellipse cx="58" cy="22" rx="3" ry="2" fill="#FFF9C4"/>
  <ellipse cx="65" cy="26" rx="2.5" ry="1.5" fill="#FFF9C4"/>
  
  <ellipse cx="60" cy="40" rx="3" ry="2" fill="#FFF9C4"/>
  <ellipse cx="50" cy="45" rx="2.5" ry="1.5" fill="#FFF9C4"/>
  
  <ellipse cx="35" cy="35" rx="3" ry="2" fill="#FFF9C4"/>
  <ellipse cx="30" cy="28" rx="2.5" ry="1.5" fill="#FFF9C4"/>

  <!-- Center Core -->
  <ellipse cx="50" cy="30" rx="5" ry="3" fill="#E57373"/>
</svg>
